<?xml version="1.0" encoding="utf-8"?>
<!-- Generator: Adobe Illustrator 21.0.2, SVG Export Plug-In . SVG Version: 6.00 Build 0)  -->
<svg version="1.1" xmlns="http://www.w3.org/2000/svg" xmlns:xlink="http://www.w3.org/1999/xlink" x="0px" y="0px"
	 viewBox="0 0 320 200" style="enable-background:new 0 0 320 200;" xml:space="preserve">
<style type="text/css">
	.st0{fill:#8EC57B;}
	.st1{fill:#8B7E80;}
	.st2{fill:#463836;}
	.st3{fill:#615454;}
	.st4{fill:#E94844;}
	.st5{fill:#276B9D;}
</style>
<g id="Calque_1">
	<rect class="st0" width="320" height="200"/>
</g>
<g id="Calque_2">
	<g>
		
			<image style="overflow:visible;opacity:0.75;" width="550" height="207" xlink:href="F54B5149.png"  transform="matrix(0.24 0 0 0.24 99 101.4)">
		</image>
		<g>
			<g>
				<polygon class="st1" points="109.1,111.6 111.2,130.7 117.6,130.7 117.6,111.6 				"/>
				<polygon class="st1" points="210.9,111.6 208.8,130.7 202.4,130.7 202.4,111.6 				"/>
			</g>
		</g>
	</g>
	<g>
		
			<image style="overflow:visible;opacity:0.75;" width="617" height="549" xlink:href="F54B514B.png"  transform="matrix(0.24 0 0 0.24 91.08 25.8)">
		</image>
		<g>
			<g>
				<path class="st2" d="M198.3,104.8l-5.2,16.3l5.2,16.3c3.7,0,6.8-3,6.8-6.8v-19C205,107.9,202,104.8,198.3,104.8z"/>
				<path class="st2" d="M115,111.6v19c0,3.7,3,6.8,6.8,6.8l5.2-16.3l-5.2-16.3C118,104.8,115,107.9,115,111.6z"/>
				<path class="st2" d="M201.6,53.2C190.5,42.1,175.7,36,160,36s-30.5,6.1-41.6,17.2c-11.1,11.1-17.2,25.9-17.2,41.6
					c0,1.8,1.5,3.3,3.3,3.3c1.8,0,3.3-1.5,3.3-3.3c0-28.8,23.4-52.2,52.2-52.2c28.8,0,52.2,23.3,52.2,52.1c0,0,0,0,0,0.1
					c0,1.8,1.5,3.3,3.3,3.3s3.3-1.5,3.3-3.3C218.8,79.1,212.7,64.3,201.6,53.2z"/>
			</g>
		</g>
	</g>
	<g>
		
			<image style="overflow:visible;opacity:0.75;" width="579" height="501" xlink:href="F54B514E.png"  transform="matrix(0.24 0 0 0.24 95.64 30.6)">
		</image>
		<g>
			<path class="st3" d="M210.8,130.7c-1.1,0-2,0-2,0v-23.7c0-0.2,0-0.3,0.1-0.5c0.9-3.8,1.4-7.8,1.4-11.7
				c0-27.7-22.5-50.2-50.2-50.2s-50.2,22.5-50.2,50.2c0,4,0.5,7.9,1.4,11.7c0,0.1,0.1,0.3,0.1,0.5v23.7c0,0-0.9,0-2,0
				c-1.1,0-2-0.9-2-2v-21.5c-0.9-4-1.4-8.2-1.4-12.4c0-29.9,24.3-54.2,54.2-54.2s54.2,24.3,54.2,54.2c0,4.2-0.5,8.4-1.4,12.4v21.5
				C212.7,129.8,211.9,130.7,210.8,130.7z"/>
		</g>
	</g>
	<g>
		
			<image style="overflow:visible;opacity:0.75;" width="445" height="348" xlink:href="F54B514F.png"  transform="matrix(0.24 0 0 0.24 111.72 84.36)">
		</image>
		<g>
			<g>
				<path class="st4" d="M187.9,94.5c-5.7,0-10.3,4.6-10.3,10.3v32.6c0,5.7,4.6,10.3,10.3,10.3c5.7,0,10.3-4.6,10.3-10.3v-32.6
					C198.3,99.2,193.6,94.5,187.9,94.5z"/>
				<path class="st4" d="M132.1,94.5c-5.7,0-10.3,4.6-10.3,10.3v32.6c0,5.7,4.6,10.3,10.3,10.3c5.7,0,10.3-4.6,10.3-10.3v-32.6
					C142.4,99.2,137.8,94.5,132.1,94.5z"/>
			</g>
		</g>
	</g>
</g>
<g id="Calque_3">
	<path class="st5" d="M133.5,123.5h17.2l1.3-2.4l3.2,9.2l4.1-13.4l3.8,21.4l4.6-14.8l2.9,7.3l3.6-7.2h16.3c0.8,0,1.5-0.7,1.5-1.5
		c0-0.8-0.7-1.5-1.5-1.5h-18.2l-1.5,3l-3.6-8.9l-3.5,11.1l-3.8-21.6l-5,16.6l-2.4-6.9l-3.7,6.8h-15.4c-0.8,0-1.5,0.7-1.5,1.5
		C132.1,122.8,132.7,123.5,133.5,123.5z"/>
</g>
</svg>
