<?xml version="1.0" encoding="utf-8"?>
<!-- Generator: Adobe Illustrator 21.0.2, SVG Export Plug-In . SVG Version: 6.00 Build 0)  -->
<svg version="1.1" id="Calque_3" xmlns="http://www.w3.org/2000/svg" xmlns:xlink="http://www.w3.org/1999/xlink" x="0px" y="0px"
	 viewBox="0 0 320 200" style="enable-background:new 0 0 320 200;" xml:space="preserve">
<style type="text/css">
	.st0{fill:none;}
	.st1{fill:#5C727D;}
	.st2{fill:#334E5C;}
</style>
<g>
	<path class="st0" d="M38.4,145.5h1.2c0.7,0,1.2-0.6,1.2-1.2v-2.4c0-0.7-0.6-1.2-1.2-1.2h-1.2c-0.7,0-1.2,0.6-1.2,1.2v2.4
		C37.2,144.9,37.7,145.5,38.4,145.5z"/>
	<path class="st0" d="M65.6,163.1h-1.2c-0.7,0-1.2,0.6-1.2,1.2v2.2c0,0.7,0.6,1.2,1.2,1.2h1.2c0.7,0,1.2-0.6,1.2-1.2v-2.2
		C66.8,163.6,66.3,163.1,65.6,163.1z"/>
	<path class="st0" d="M65.6,133.2h-1.2c-0.7,0-1.2,0.6-1.2,1.2v2.4c0,0.7,0.6,1.2,1.2,1.2h1.2c0.7,0,1.2-0.6,1.2-1.2v-2.4
		C66.8,133.7,66.3,133.2,65.6,133.2z"/>
	<path class="st0" d="M65.6,125.8h-1.2c-0.7,0-1.2,0.6-1.2,1.2v2.3h0v0.2c0,0.7,0.6,1.2,1.2,1.2h1.2c0.7,0,1.2-0.6,1.2-1.2V127
		C66.8,126.3,66.3,125.8,65.6,125.8z"/>
	<path class="st0" d="M39.7,133.2h-1.2c-0.7,0-1.2,0.6-1.2,1.2v2.4c0,0.7,0.6,1.2,1.2,1.2h1.2c0.7,0,1.2-0.6,1.2-1.2v-2.4
		C40.9,133.7,40.3,133.2,39.7,133.2z"/>
	<path class="st0" d="M65.6,118.4h-1.2c-0.7,0-1.2,0.6-1.2,1.2v2.3c0,0.7,0.6,1.2,1.2,1.2h1.2c0.7,0,1.2-0.6,1.2-1.2v-2.3
		C66.8,118.9,66.3,118.4,65.6,118.4z"/>
	<path class="st0" d="M64.4,152.9h1.2c0.7,0,1.2-0.6,1.2-1.2v-2.4c0-0.7-0.6-1.2-1.2-1.2h-1.2c-0.7,0-1.2,0.6-1.2,1.2v2.4
		C63.1,152.4,63.7,152.9,64.4,152.9z"/>
	<path class="st0" d="M65.6,51.3h-1.2c-0.7,0-1.2,0.6-1.2,1.2v2.3c0,0.7,0.6,1.2,1.2,1.2h1.2c0.7,0,1.2-0.6,1.2-1.2v-2.3
		C66.8,51.9,66.3,51.3,65.6,51.3z"/>
	<path class="st0" d="M65.6,110.8h-1.2c-0.7,0-1.2,0.6-1.2,1.2v2.5c0,0.7,0.6,1.2,1.2,1.2h1.2c0.7,0,1.2-0.6,1.2-1.2v-2.3h0V112
		C66.8,111.3,66.3,110.8,65.6,110.8z"/>
	<path class="st0" d="M65.6,58.7h-1.2c-0.7,0-1.2,0.6-1.2,1.2v2.3h0v0.2c0,0.7,0.6,1.2,1.2,1.2h1.2c0.7,0,1.2-0.6,1.2-1.2V60
		C66.8,59.3,66.3,58.7,65.6,58.7z"/>
	<path class="st0" d="M65.6,43.7h-1.2c-0.7,0-1.2,0.6-1.2,1.2v2.5c0,0.7,0.6,1.2,1.2,1.2h1.2c0.7,0,1.2-0.6,1.2-1.2v-2.3h0V45
		C66.8,44.3,66.3,43.7,65.6,43.7z"/>
	<path class="st0" d="M65.6,103.3h-1.2c-0.7,0-1.2,0.6-1.2,1.2v2.2h0v0.3c0,0.7,0.6,1.2,1.2,1.2h1.2c0.7,0,1.2-0.6,1.2-1.2v-2.5
		C66.8,103.9,66.3,103.3,65.6,103.3z"/>
	<path class="st0" d="M65.6,88.2h-1.2c-0.7,0-1.2,0.6-1.2,1.2v2.5c0,0.7,0.6,1.2,1.2,1.2h1.2c0.7,0,1.2-0.6,1.2-1.2v-2.2h0v-0.3
		C66.8,88.8,66.3,88.2,65.6,88.2z"/>
	<path class="st0" d="M65.6,66.2h-1.2c-0.7,0-1.2,0.6-1.2,1.2v2.3c0,0.7,0.6,1.2,1.2,1.2h1.2c0.7,0,1.2-0.6,1.2-1.2v-2.3
		C66.8,66.7,66.3,66.2,65.6,66.2z"/>
	<path class="st0" d="M39.7,177.9h-1.2c-0.7,0-1.2,0.6-1.2,1.2v2.5c0,0.7,0.6,1.2,1.2,1.2h1.2c0.7,0,1.2-0.6,1.2-1.2v-2.3h0v-0.2
		C40.9,178.5,40.3,177.9,39.7,177.9z"/>
	<path class="st0" d="M38.4,130.7h1.2c0.7,0,1.2-0.6,1.2-1.2V127c0-0.7-0.6-1.2-1.2-1.2h-1.2c-0.7,0-1.2,0.6-1.2,1.2v2.3h0v0.2
		C37.2,130.2,37.7,130.7,38.4,130.7z"/>
	<path class="st0" d="M65.6,140.6h-1.2c-0.7,0-1.2,0.6-1.2,1.2v2.4c0,0.7,0.6,1.2,1.2,1.2h1.2c0.7,0,1.2-0.6,1.2-1.2v-2.4
		C66.8,141.2,66.3,140.6,65.6,140.6z"/>
	<path class="st0" d="M38.4,63.7h1.2c0.7,0,1.2-0.6,1.2-1.2V60c0-0.7-0.6-1.2-1.2-1.2h-1.2c-0.7,0-1.2,0.6-1.2,1.2v2.3h0v0.2
		C37.2,63.1,37.7,63.7,38.4,63.7z"/>
	<path class="st0" d="M38.4,190.3h1.2c0.7,0,1.2-0.6,1.2-1.2v-2.3c0-0.7-0.6-1.2-1.2-1.2h-1.2c-0.7,0-1.2,0.6-1.2,1.2v2.3
		C37.2,189.7,37.7,190.3,38.4,190.3z"/>
	<path class="st0" d="M64.4,33.6h1.2c0.7,0,1.2-0.6,1.2-1.2v-2.2c0-0.7-0.6-1.2-1.2-1.2h-1.2c-0.7,0-1.2,0.6-1.2,1.2v2.2
		C63.1,33,63.7,33.6,64.4,33.6z"/>
	<path class="st0" d="M38.4,33.6h1.2c0.7,0,1.2-0.6,1.2-1.2v-2.2c0-0.7-0.6-1.2-1.2-1.2h-1.2c-0.7,0-1.2,0.6-1.2,1.2v2.2
		C37.2,33,37.7,33.6,38.4,33.6z"/>
	<path class="st0" d="M65.6,73.6h-1.2c-0.7,0-1.2,0.6-1.2,1.2v2.3c0,0.7,0.6,1.2,1.2,1.2h1.2c0.7,0,1.2-0.6,1.2-1.2v-2.3
		C66.8,74.1,66.3,73.6,65.6,73.6z"/>
	<path class="st0" d="M39.7,66.2h-1.2c-0.7,0-1.2,0.6-1.2,1.2v2.3c0,0.7,0.6,1.2,1.2,1.2h1.2c0.7,0,1.2-0.6,1.2-1.2v-2.3
		C40.9,66.7,40.3,66.2,39.7,66.2z"/>
	<path class="st0" d="M38.4,78.4h1.2c0.7,0,1.2-0.6,1.2-1.2v-2.3c0-0.7-0.6-1.2-1.2-1.2h-1.2c-0.7,0-1.2,0.6-1.2,1.2v2.3
		C37.2,77.8,37.7,78.4,38.4,78.4z"/>
	<path class="st0" d="M64.4,41.3h1.2c0.7,0,1.2-0.6,1.2-1.2v-2.5c0-0.7-0.6-1.2-1.2-1.2h-1.2c-0.7,0-1.2,0.6-1.2,1.2v2.2h0V40
		C63.1,40.7,63.7,41.3,64.4,41.3z"/>
	<path class="st0" d="M65.6,95.9h-1.2c-0.7,0-1.2,0.6-1.2,1.2v2.2c0,0.7,0.6,1.2,1.2,1.2h1.2c0.7,0,1.2-0.6,1.2-1.2v-2.2
		C66.8,96.5,66.3,95.9,65.6,95.9z"/>
	<path class="st0" d="M64.4,85.8h1.2c0.7,0,1.2-0.6,1.2-1.2v-2.3c0-0.7-0.6-1.2-1.2-1.2h-1.2c-0.7,0-1.2,0.6-1.2,1.2v2.3
		C63.1,85.2,63.7,85.8,64.4,85.8z"/>
	<path class="st0" d="M38.4,152.9h1.2c0.7,0,1.2-0.6,1.2-1.2v-2.4c0-0.7-0.6-1.2-1.2-1.2h-1.2c-0.7,0-1.2,0.6-1.2,1.2v2.4
		C37.2,152.4,37.7,152.9,38.4,152.9z"/>
	<path class="st0" d="M65.6,155.4h-1.2c-0.7,0-1.2,0.6-1.2,1.2v2.5c0,0.7,0.6,1.2,1.2,1.2h1.2c0.7,0,1.2-0.6,1.2-1.2v-2.2h0v-0.3
		C66.8,155.9,66.3,155.4,65.6,155.4z"/>
	<path class="st0" d="M64.4,18.7h1.2c0.7,0,1.2-0.6,1.2-1.2V15c0-0.7-0.6-1.2-1.2-1.2h-1.2c-0.7,0-1.2,0.6-1.2,1.2v2.5
		C63.1,18.2,63.7,18.7,64.4,18.7z"/>
	<path class="st0" d="M64.4,11.3h1.2c0.7,0,1.2-0.6,1.2-1.2V7.6c0-0.7-0.6-1.2-1.2-1.2h-1.2c-0.7,0-1.2,0.6-1.2,1.2v2.5
		C63.1,10.8,63.7,11.3,64.4,11.3z"/>
	<path class="st0" d="M38.4,41.3h1.2c0.7,0,1.2-0.6,1.2-1.2v-2.5c0-0.7-0.6-1.2-1.2-1.2h-1.2c-0.7,0-1.2,0.6-1.2,1.2v2.2h0V40
		C37.2,40.7,37.7,41.3,38.4,41.3z"/>
	<path class="st0" d="M65.6,170.5h-1.2c-0.7,0-1.2,0.6-1.2,1.2v2.2h0v0.3c0,0.7,0.6,1.2,1.2,1.2h1.2c0.7,0,1.2-0.6,1.2-1.2v-2.5
		C66.8,171,66.3,170.5,65.6,170.5z"/>
	<path class="st0" d="M65.6,177.9h-1.2c-0.7,0-1.2,0.6-1.2,1.2v2.5c0,0.7,0.6,1.2,1.2,1.2h1.2c0.7,0,1.2-0.6,1.2-1.2v-2.3h0v-0.2
		C66.8,178.5,66.3,177.9,65.6,177.9z"/>
	<path class="st0" d="M39.7,192.9h-1.2c-0.7,0-1.2,0.6-1.2,1.2v2.3h0v0.2c0,0.7,0.6,1.2,1.2,1.2h1.2c0.7,0,1.2-0.6,1.2-1.2v-2.5
		C40.9,193.5,40.3,192.9,39.7,192.9z"/>
	<path class="st0" d="M38.4,26.1h1.2c0.7,0,1.2-0.6,1.2-1.2v-2.2h0v-0.3c0-0.7-0.6-1.2-1.2-1.2h-1.2c-0.7,0-1.2,0.6-1.2,1.2v2.5
		C37.2,25.6,37.7,26.1,38.4,26.1z"/>
	<path class="st0" d="M65.6,185.5h-1.2c-0.7,0-1.2,0.6-1.2,1.2v2.3c0,0.7,0.6,1.2,1.2,1.2h1.2c0.7,0,1.2-0.6,1.2-1.2v-2.3
		C66.8,186.1,66.3,185.5,65.6,185.5z"/>
	<path class="st0" d="M65.6,192.9h-1.2c-0.7,0-1.2,0.6-1.2,1.2v2.3h0v0.2c0,0.7,0.6,1.2,1.2,1.2h1.2c0.7,0,1.2-0.6,1.2-1.2v-2.5
		C66.8,193.5,66.3,192.9,65.6,192.9z"/>
	<path class="st0" d="M38.4,18.7h1.2c0.7,0,1.2-0.6,1.2-1.2V15c0-0.7-0.6-1.2-1.2-1.2h-1.2c-0.7,0-1.2,0.6-1.2,1.2v2.5
		C37.2,18.2,37.7,18.7,38.4,18.7z"/>
	<path class="st0" d="M38.4,11.3h1.2c0.7,0,1.2-0.6,1.2-1.2V7.6c0-0.7-0.6-1.2-1.2-1.2h-1.2c-0.7,0-1.2,0.6-1.2,1.2v2.5
		C37.2,10.8,37.7,11.3,38.4,11.3z"/>
	<path class="st0" d="M64.4,26.1h1.2c0.7,0,1.2-0.6,1.2-1.2v-2.2h0v-0.3c0-0.7-0.6-1.2-1.2-1.2h-1.2c-0.7,0-1.2,0.6-1.2,1.2v2.5
		C63.1,25.6,63.7,26.1,64.4,26.1z"/>
	<path class="st0" d="M38.4,93.2h1.2c0.7,0,1.2-0.6,1.2-1.2v-2.2h0v-0.3c0-0.7-0.6-1.2-1.2-1.2h-1.2c-0.7,0-1.2,0.6-1.2,1.2v2.5
		C37.2,92.6,37.7,93.2,38.4,93.2z"/>
	<path class="st0" d="M38.4,100.6h1.2c0.7,0,1.2-0.6,1.2-1.2v-2.2c0-0.7-0.6-1.2-1.2-1.2h-1.2c-0.7,0-1.2,0.6-1.2,1.2v2.2
		C37.2,100,37.7,100.6,38.4,100.6z"/>
	<path class="st0" d="M38.4,108.3h1.2c0.7,0,1.2-0.6,1.2-1.2v-2.5c0-0.7-0.6-1.2-1.2-1.2h-1.2c-0.7,0-1.2,0.6-1.2,1.2v2.2h0v0.3
		C37.2,107.7,37.7,108.3,38.4,108.3z"/>
	<path class="st0" d="M38.4,115.7h1.2c0.7,0,1.2-0.6,1.2-1.2v-2.3h0V112c0-0.7-0.6-1.2-1.2-1.2h-1.2c-0.7,0-1.2,0.6-1.2,1.2v2.5
		C37.2,115.2,37.7,115.7,38.4,115.7z"/>
	<path class="st0" d="M38.4,48.7h1.2c0.7,0,1.2-0.6,1.2-1.2v-2.3h0V45c0-0.7-0.6-1.2-1.2-1.2h-1.2c-0.7,0-1.2,0.6-1.2,1.2v2.5
		C37.2,48.1,37.7,48.7,38.4,48.7z"/>
	<path class="st0" d="M38.4,85.8h1.2c0.7,0,1.2-0.6,1.2-1.2v-2.3c0-0.7-0.6-1.2-1.2-1.2h-1.2c-0.7,0-1.2,0.6-1.2,1.2v2.3
		C37.2,85.2,37.7,85.8,38.4,85.8z"/>
	<path class="st0" d="M38.4,56.1h1.2c0.7,0,1.2-0.6,1.2-1.2v-2.3c0-0.7-0.6-1.2-1.2-1.2h-1.2c-0.7,0-1.2,0.6-1.2,1.2v2.3
		C37.2,55.5,37.7,56.1,38.4,56.1z"/>
	<path class="st0" d="M38.4,123.1h1.2c0.7,0,1.2-0.6,1.2-1.2v-2.3c0-0.7-0.6-1.2-1.2-1.2h-1.2c-0.7,0-1.2,0.6-1.2,1.2v2.3
		C37.2,122.6,37.7,123.1,38.4,123.1z"/>
	<path class="st0" d="M38.4,175.4h1.2c0.7,0,1.2-0.6,1.2-1.2v-2.5c0-0.7-0.6-1.2-1.2-1.2h-1.2c-0.7,0-1.2,0.6-1.2,1.2v2.2h0v0.3
		C37.2,174.9,37.7,175.4,38.4,175.4z"/>
	<path class="st0" d="M39.7,155.4h-1.2c-0.7,0-1.2,0.6-1.2,1.2v2.5c0,0.7,0.6,1.2,1.2,1.2h1.2c0.7,0,1.2-0.6,1.2-1.2v-2.2h0v-0.3
		C40.9,155.9,40.3,155.4,39.7,155.4z"/>
	<path class="st0" d="M38.4,167.7h1.2c0.7,0,1.2-0.6,1.2-1.2v-2.2c0-0.7-0.6-1.2-1.2-1.2h-1.2c-0.7,0-1.2,0.6-1.2,1.2v2.2
		C37.2,167.2,37.7,167.7,38.4,167.7z"/>
	<path class="st1" d="M44.6,7.6h14.8c0.7,0,1.2-0.6,1.2-1.2V0.2H43.4v6.2C43.4,7.1,43.9,7.6,44.6,7.6z"/>
	<path class="st1" d="M43.4,28.9c0,0.7,0.6,1.2,1.2,1.2h14.8c0.7,0,1.2-0.6,1.2-1.2v-6.2h0V11.3c0-0.7-0.6-1.2-1.2-1.2H44.6
		c-0.7,0-1.2,0.6-1.2,1.2v11.4h0V28.9z"/>
	<path class="st1" d="M43.4,45.1L43.4,45.1l0,6.2c0,0.7,0.6,1.2,1.2,1.2h14.8c0.7,0,1.2-0.6,1.2-1.2v-6.2h0V33.8
		c0-0.7-0.6-1.2-1.2-1.2H44.6c-0.7,0-1.2,0.6-1.2,1.2V45.1z"/>
	<path class="st1" d="M43.4,67.2L43.4,67.2l0,6.2c0,0.7,0.6,1.2,1.2,1.2h14.8c0.7,0,1.2-0.6,1.2-1.2v-6.2h0v-11
		c0-0.7-0.6-1.2-1.2-1.2H44.6c-0.7,0-1.2,0.6-1.2,1.2V67.2z"/>
	<path class="st1" d="M43.4,95.9c0,0.7,0.6,1.2,1.2,1.2h14.8c0.7,0,1.2-0.6,1.2-1.2v-6.2h0V78.4c0-0.7-0.6-1.2-1.2-1.2H44.6
		c-0.7,0-1.2,0.6-1.2,1.2v11.4h0V95.9z"/>
	<path class="st1" d="M43.4,118.4c0,0.7,0.6,1.2,1.2,1.2h14.8c0.7,0,1.2-0.6,1.2-1.2v-6.2h0v-11.3c0-0.7-0.6-1.2-1.2-1.2H44.6
		c-0.7,0-1.2,0.6-1.2,1.2v11.3h0V118.4z"/>
	<path class="st2" d="M69.3,134.4L69.3,134.4l0-5.1h0v-22.5h0V67.2h0v-5h0V39.7h0V0.2h-2.5v2.5c0,0.7-0.6,1.2-1.2,1.2h-1.2
		c-0.7,0-1.2-0.6-1.2-1.2V0.2h-2.5v6.2c0,0.7-0.6,1.2-1.2,1.2H44.6c-0.7,0-1.2-0.6-1.2-1.2V0.2h-2.5v2.5c0,0.7-0.6,1.2-1.2,1.2h-1.2
		c-0.7,0-1.2-0.6-1.2-1.2V0.2h-2.5v22.5h0v22.4h0v39.5h0v5.1h0v22.4h0v39.5h0v5.2h0v22.4h0v20.9c2.9,0,5.8,0,8.6,0v-9.8
		c0-0.7,0.6-1.2,1.2-1.2h14.8c0.7,0,1.2,0.6,1.2,1.2v9.8c2.9,0,5.8,0,8.6,0v-3.8h0v-22.5h0V134.4z M38.4,185.5h1.2
		c0.7,0,1.2,0.6,1.2,1.2v2.3c0,0.7-0.6,1.2-1.2,1.2h-1.2c-0.7,0-1.2-0.6-1.2-1.2v-2.3C37.2,186.1,37.7,185.5,38.4,185.5z
		 M40.9,179.3v2.3c0,0.7-0.6,1.2-1.2,1.2h-1.2c-0.7,0-1.2-0.6-1.2-1.2v-2.5c0-0.7,0.6-1.2,1.2-1.2h1.2c0.7,0,1.2,0.6,1.2,1.2
		L40.9,179.3L40.9,179.3z M37.2,129.3L37.2,129.3l0-2.3c0-0.7,0.6-1.2,1.2-1.2h1.2c0.7,0,1.2,0.6,1.2,1.2v2.5c0,0.7-0.6,1.2-1.2,1.2
		h-1.2c-0.7,0-1.2-0.6-1.2-1.2V129.3z M37.2,62.3L37.2,62.3l0-2.3c0-0.7,0.6-1.2,1.2-1.2h1.2c0.7,0,1.2,0.6,1.2,1.2v2.5
		c0,0.7-0.6,1.2-1.2,1.2h-1.2c-0.7,0-1.2-0.6-1.2-1.2V62.3z M64.4,28.9h1.2c0.7,0,1.2,0.6,1.2,1.2v2.2c0,0.7-0.6,1.2-1.2,1.2h-1.2
		c-0.7,0-1.2-0.6-1.2-1.2v-2.2C63.1,29.5,63.7,28.9,64.4,28.9z M63.1,39.7v-2.2c0-0.7,0.6-1.2,1.2-1.2h1.2c0.7,0,1.2,0.6,1.2,1.2V40
		c0,0.7-0.6,1.2-1.2,1.2h-1.2c-0.7,0-1.2-0.6-1.2-1.2L63.1,39.7L63.1,39.7z M37.2,149.3c0-0.7,0.6-1.2,1.2-1.2h1.2
		c0.7,0,1.2,0.6,1.2,1.2v2.4c0,0.7-0.6,1.2-1.2,1.2h-1.2c-0.7,0-1.2-0.6-1.2-1.2V149.3z M44.6,55h14.8c0.7,0,1.2,0.6,1.2,1.2v11h0
		v6.2c0,0.7-0.6,1.2-1.2,1.2H44.6c-0.7,0-1.2-0.6-1.2-1.2v-6.2h0v-11C43.4,55.6,43.9,55,44.6,55z M65.6,100.6h-1.2
		c-0.7,0-1.2-0.6-1.2-1.2v-2.2c0-0.7,0.6-1.2,1.2-1.2h1.2c0.7,0,1.2,0.6,1.2,1.2v2.2C66.8,100,66.3,100.6,65.6,100.6z M63.1,82.2
		c0-0.7,0.6-1.2,1.2-1.2h1.2c0.7,0,1.2,0.6,1.2,1.2v2.3c0,0.7-0.6,1.2-1.2,1.2h-1.2c-0.7,0-1.2-0.6-1.2-1.2V82.2z M65.6,78.4h-1.2
		c-0.7,0-1.2-0.6-1.2-1.2v-2.3c0-0.7,0.6-1.2,1.2-1.2h1.2c0.7,0,1.2,0.6,1.2,1.2v2.3C66.8,77.8,66.3,78.4,65.6,78.4z M40.9,69.7
		c0,0.7-0.6,1.2-1.2,1.2h-1.2c-0.7,0-1.2-0.6-1.2-1.2v-2.3c0-0.7,0.6-1.2,1.2-1.2h1.2c0.7,0,1.2,0.6,1.2,1.2V69.7z M37.2,74.8
		c0-0.7,0.6-1.2,1.2-1.2h1.2c0.7,0,1.2,0.6,1.2,1.2v2.3c0,0.7-0.6,1.2-1.2,1.2h-1.2c-0.7,0-1.2-0.6-1.2-1.2V74.8z M43.4,78.4
		c0-0.7,0.6-1.2,1.2-1.2h14.8c0.7,0,1.2,0.6,1.2,1.2v11.4h0v6.2c0,0.7-0.6,1.2-1.2,1.2H44.6c-0.7,0-1.2-0.6-1.2-1.2v-6.2h0V78.4z
		 M65.6,145.5h-1.2c-0.7,0-1.2-0.6-1.2-1.2v-2.4c0-0.7,0.6-1.2,1.2-1.2h1.2c0.7,0,1.2,0.6,1.2,1.2v2.4
		C66.8,144.9,66.3,145.5,65.6,145.5z M65.6,138.1h-1.2c-0.7,0-1.2-0.6-1.2-1.2v-2.4c0-0.7,0.6-1.2,1.2-1.2h1.2
		c0.7,0,1.2,0.6,1.2,1.2v2.4C66.8,137.5,66.3,138.1,65.6,138.1z M66.8,129.5c0,0.7-0.6,1.2-1.2,1.2h-1.2c-0.7,0-1.2-0.6-1.2-1.2
		v-0.2h0V127c0-0.7,0.6-1.2,1.2-1.2h1.2c0.7,0,1.2,0.6,1.2,1.2V129.5z M65.6,123.1h-1.2c-0.7,0-1.2-0.6-1.2-1.2v-2.3
		c0-0.7,0.6-1.2,1.2-1.2h1.2c0.7,0,1.2,0.6,1.2,1.2v2.3C66.8,122.6,66.3,123.1,65.6,123.1z M43.4,100.9c0-0.7,0.6-1.2,1.2-1.2h14.8
		c0.7,0,1.2,0.6,1.2,1.2v11.3h0v6.2c0,0.7-0.6,1.2-1.2,1.2H44.6c-0.7,0-1.2-0.6-1.2-1.2v-6.2h0V100.9z M40.9,136.8
		c0,0.7-0.6,1.2-1.2,1.2h-1.2c-0.7,0-1.2-0.6-1.2-1.2v-2.4c0-0.7,0.6-1.2,1.2-1.2h1.2c0.7,0,1.2,0.6,1.2,1.2V136.8z M37.2,141.8
		c0-0.7,0.6-1.2,1.2-1.2h1.2c0.7,0,1.2,0.6,1.2,1.2v2.4c0,0.7-0.6,1.2-1.2,1.2h-1.2c-0.7,0-1.2-0.6-1.2-1.2V141.8z M59.4,141.8H44.6
		c-0.7,0-1.2-0.6-1.2-1.2v-6.2h0v-11.1c0-0.7,0.6-1.2,1.2-1.2h14.8c0.7,0,1.2,0.6,1.2,1.2v11.1h0v6.2
		C60.7,141.2,60.1,141.8,59.4,141.8z M65.6,167.7h-1.2c-0.7,0-1.2-0.6-1.2-1.2v-2.2c0-0.7,0.6-1.2,1.2-1.2h1.2
		c0.7,0,1.2,0.6,1.2,1.2v2.2C66.8,167.2,66.3,167.7,65.6,167.7z M63.1,149.3c0-0.7,0.6-1.2,1.2-1.2h1.2c0.7,0,1.2,0.6,1.2,1.2v2.4
		c0,0.7-0.6,1.2-1.2,1.2h-1.2c-0.7,0-1.2-0.6-1.2-1.2V149.3z M66.8,112.2v2.3c0,0.7-0.6,1.2-1.2,1.2h-1.2c-0.7,0-1.2-0.6-1.2-1.2
		V112c0-0.7,0.6-1.2,1.2-1.2h1.2c0.7,0,1.2,0.6,1.2,1.2L66.8,112.2L66.8,112.2z M66.8,107.1c0,0.7-0.6,1.2-1.2,1.2h-1.2
		c-0.7,0-1.2-0.6-1.2-1.2v-0.3h0v-2.2c0-0.7,0.6-1.2,1.2-1.2h1.2c0.7,0,1.2,0.6,1.2,1.2V107.1z M66.8,89.8L66.8,89.8l0,2.2
		c0,0.7-0.6,1.2-1.2,1.2h-1.2c-0.7,0-1.2-0.6-1.2-1.2v-2.5c0-0.7,0.6-1.2,1.2-1.2h1.2c0.7,0,1.2,0.6,1.2,1.2V89.8z M65.6,70.9h-1.2
		c-0.7,0-1.2-0.6-1.2-1.2v-2.3c0-0.7,0.6-1.2,1.2-1.2h1.2c0.7,0,1.2,0.6,1.2,1.2v2.3C66.8,70.4,66.3,70.9,65.6,70.9z M66.8,62.4
		c0,0.7-0.6,1.2-1.2,1.2h-1.2c-0.7,0-1.2-0.6-1.2-1.2v-0.2h0V60c0-0.7,0.6-1.2,1.2-1.2h1.2c0.7,0,1.2,0.6,1.2,1.2V62.4z M65.6,56.1
		h-1.2c-0.7,0-1.2-0.6-1.2-1.2v-2.3c0-0.7,0.6-1.2,1.2-1.2h1.2c0.7,0,1.2,0.6,1.2,1.2v2.3C66.8,55.5,66.3,56.1,65.6,56.1z
		 M66.8,45.1v2.3c0,0.7-0.6,1.2-1.2,1.2h-1.2c-0.7,0-1.2-0.6-1.2-1.2V45c0-0.7,0.6-1.2,1.2-1.2h1.2c0.7,0,1.2,0.6,1.2,1.2L66.8,45.1
		L66.8,45.1z M44.6,32.6h14.8c0.7,0,1.2,0.6,1.2,1.2v11.3h0v6.2c0,0.7-0.6,1.2-1.2,1.2H44.6c-0.7,0-1.2-0.6-1.2-1.2v-6.2h0V33.8
		C43.4,33.2,43.9,32.6,44.6,32.6z M38.4,28.9h1.2c0.7,0,1.2,0.6,1.2,1.2v2.2c0,0.7-0.6,1.2-1.2,1.2h-1.2c-0.7,0-1.2-0.6-1.2-1.2
		v-2.2C37.2,29.5,37.7,28.9,38.4,28.9z M37.2,39.7v-2.2c0-0.7,0.6-1.2,1.2-1.2h1.2c0.7,0,1.2,0.6,1.2,1.2V40c0,0.7-0.6,1.2-1.2,1.2
		h-1.2c-0.7,0-1.2-0.6-1.2-1.2L37.2,39.7L37.2,39.7z M37.2,45c0-0.7,0.6-1.2,1.2-1.2h1.2c0.7,0,1.2,0.6,1.2,1.2v0.2h0v2.3
		c0,0.7-0.6,1.2-1.2,1.2h-1.2c-0.7,0-1.2-0.6-1.2-1.2V45z M38.4,51.3h1.2c0.7,0,1.2,0.6,1.2,1.2v2.3c0,0.7-0.6,1.2-1.2,1.2h-1.2
		c-0.7,0-1.2-0.6-1.2-1.2v-2.3C37.2,51.9,37.7,51.3,38.4,51.3z M38.4,81h1.2c0.7,0,1.2,0.6,1.2,1.2v2.3c0,0.7-0.6,1.2-1.2,1.2h-1.2
		c-0.7,0-1.2-0.6-1.2-1.2v-2.3C37.2,81.5,37.7,81,38.4,81z M37.2,89.5c0-0.7,0.6-1.2,1.2-1.2h1.2c0.7,0,1.2,0.6,1.2,1.2v0.3h0v2.2
		c0,0.7-0.6,1.2-1.2,1.2h-1.2c-0.7,0-1.2-0.6-1.2-1.2V89.5z M38.4,95.9h1.2c0.7,0,1.2,0.6,1.2,1.2v2.2c0,0.7-0.6,1.2-1.2,1.2h-1.2
		c-0.7,0-1.2-0.6-1.2-1.2v-2.2C37.2,96.5,37.7,95.9,38.4,95.9z M37.2,106.8v-2.2c0-0.7,0.6-1.2,1.2-1.2h1.2c0.7,0,1.2,0.6,1.2,1.2
		v2.5c0,0.7-0.6,1.2-1.2,1.2h-1.2c-0.7,0-1.2-0.6-1.2-1.2L37.2,106.8L37.2,106.8z M37.2,112c0-0.7,0.6-1.2,1.2-1.2h1.2
		c0.7,0,1.2,0.6,1.2,1.2v0.2h0v2.3c0,0.7-0.6,1.2-1.2,1.2h-1.2c-0.7,0-1.2-0.6-1.2-1.2V112z M38.4,118.4h1.2c0.7,0,1.2,0.6,1.2,1.2
		v2.3c0,0.7-0.6,1.2-1.2,1.2h-1.2c-0.7,0-1.2-0.6-1.2-1.2v-2.3C37.2,118.9,37.7,118.4,38.4,118.4z M38.4,163.1h1.2
		c0.7,0,1.2,0.6,1.2,1.2v2.2c0,0.7-0.6,1.2-1.2,1.2h-1.2c-0.7,0-1.2-0.6-1.2-1.2v-2.2C37.2,163.6,37.7,163.1,38.4,163.1z
		 M37.2,173.9v-2.2c0-0.7,0.6-1.2,1.2-1.2h1.2c0.7,0,1.2,0.6,1.2,1.2v2.5c0,0.7-0.6,1.2-1.2,1.2h-1.2c-0.7,0-1.2-0.6-1.2-1.2
		L37.2,173.9L37.2,173.9z M40.9,156.9v2.2c0,0.7-0.6,1.2-1.2,1.2h-1.2c-0.7,0-1.2-0.6-1.2-1.2v-2.5c0-0.7,0.6-1.2,1.2-1.2h1.2
		c0.7,0,1.2,0.6,1.2,1.2L40.9,156.9L40.9,156.9z M43.4,156.9L43.4,156.9l0-11.4c0-0.7,0.6-1.2,1.2-1.2h14.8c0.7,0,1.2,0.6,1.2,1.2
		v11.4h0v6.2c0,0.7-0.6,1.2-1.2,1.2H44.6c-0.7,0-1.2-0.6-1.2-1.2V156.9z M65.6,190.3h-1.2c-0.7,0-1.2-0.6-1.2-1.2v-2.3
		c0-0.7,0.6-1.2,1.2-1.2h1.2c0.7,0,1.2,0.6,1.2,1.2v2.3C66.8,189.7,66.3,190.3,65.6,190.3z M66.8,179.3v2.3c0,0.7-0.6,1.2-1.2,1.2
		h-1.2c-0.7,0-1.2-0.6-1.2-1.2v-2.5c0-0.7,0.6-1.2,1.2-1.2h1.2c0.7,0,1.2,0.6,1.2,1.2L66.8,179.3L66.8,179.3z M66.8,174.2
		c0,0.7-0.6,1.2-1.2,1.2h-1.2c-0.7,0-1.2-0.6-1.2-1.2v-0.3h0v-2.2c0-0.7,0.6-1.2,1.2-1.2h1.2c0.7,0,1.2,0.6,1.2,1.2V174.2z
		 M66.8,156.9v2.2c0,0.7-0.6,1.2-1.2,1.2h-1.2c-0.7,0-1.2-0.6-1.2-1.2v-2.5c0-0.7,0.6-1.2,1.2-1.2h1.2c0.7,0,1.2,0.6,1.2,1.2
		L66.8,156.9L66.8,156.9z M63.1,7.6c0-0.7,0.6-1.2,1.2-1.2h1.2c0.7,0,1.2,0.6,1.2,1.2v2.5c0,0.7-0.6,1.2-1.2,1.2h-1.2
		c-0.7,0-1.2-0.6-1.2-1.2V7.6z M63.1,15c0-0.7,0.6-1.2,1.2-1.2h1.2c0.7,0,1.2,0.6,1.2,1.2v2.5c0,0.7-0.6,1.2-1.2,1.2h-1.2
		c-0.7,0-1.2-0.6-1.2-1.2V15z M63.1,22.4c0-0.7,0.6-1.2,1.2-1.2h1.2c0.7,0,1.2,0.6,1.2,1.2v0.3h0v2.2c0,0.7-0.6,1.2-1.2,1.2h-1.2
		c-0.7,0-1.2-0.6-1.2-1.2V22.4z M43.4,11.3c0-0.7,0.6-1.2,1.2-1.2h14.8c0.7,0,1.2,0.6,1.2,1.2v11.4h0v6.2c0,0.7-0.6,1.2-1.2,1.2
		H44.6c-0.7,0-1.2-0.6-1.2-1.2v-6.2h0V11.3z M37.2,7.6c0-0.7,0.6-1.2,1.2-1.2h1.2c0.7,0,1.2,0.6,1.2,1.2v2.5c0,0.7-0.6,1.2-1.2,1.2
		h-1.2c-0.7,0-1.2-0.6-1.2-1.2V7.6z M37.2,15c0-0.7,0.6-1.2,1.2-1.2h1.2c0.7,0,1.2,0.6,1.2,1.2v2.5c0,0.7-0.6,1.2-1.2,1.2h-1.2
		c-0.7,0-1.2-0.6-1.2-1.2V15z M37.2,22.4c0-0.7,0.6-1.2,1.2-1.2h1.2c0.7,0,1.2,0.6,1.2,1.2v0.3h0v2.2c0,0.7-0.6,1.2-1.2,1.2h-1.2
		c-0.7,0-1.2-0.6-1.2-1.2V22.4z M40.9,196.6c0,0.7-0.6,1.2-1.2,1.2h-1.2c-0.7,0-1.2-0.6-1.2-1.2v-0.2h0v-2.3c0-0.7,0.6-1.2,1.2-1.2
		h1.2c0.7,0,1.2,0.6,1.2,1.2V196.6z M43.4,179.3L43.4,179.3l0-11.3c0-0.7,0.6-1.2,1.2-1.2h14.8c0.7,0,1.2,0.6,1.2,1.2v11.3h0v6.2
		c0,0.7-0.6,1.2-1.2,1.2H44.6c-0.7,0-1.2-0.6-1.2-1.2V179.3z M66.8,196.6c0,0.7-0.6,1.2-1.2,1.2h-1.2c-0.7,0-1.2-0.6-1.2-1.2v-0.2h0
		v-2.3c0-0.7,0.6-1.2,1.2-1.2h1.2c0.7,0,1.2,0.6,1.2,1.2V196.6z"/>
	<path class="st1" d="M60.7,134.4L60.7,134.4l0-11.1c0-0.7-0.6-1.2-1.2-1.2H44.6c-0.7,0-1.2,0.6-1.2,1.2v11.1h0v6.2
		c0,0.7,0.6,1.2,1.2,1.2h14.8c0.7,0,1.2-0.6,1.2-1.2V134.4z"/>
	<path class="st1" d="M44.6,164.3h14.8c0.7,0,1.2-0.6,1.2-1.2v-6.2h0v-11.4c0-0.7-0.6-1.2-1.2-1.2H44.6c-0.7,0-1.2,0.6-1.2,1.2v11.4
		h0v6.2C43.4,163.8,43.9,164.3,44.6,164.3z"/>
	<path class="st1" d="M44.6,186.7h14.8c0.7,0,1.2-0.6,1.2-1.2v-6.2h0V168c0-0.7-0.6-1.2-1.2-1.2H44.6c-0.7,0-1.2,0.6-1.2,1.2v11.3h0
		v6.2C43.4,186.2,43.9,186.7,44.6,186.7z"/>
	<path class="st1" d="M60.7,190.4c0-0.7-0.6-1.2-1.2-1.2H44.6c-0.7,0-1.2,0.6-1.2,1.2v9.8c5.8,0,11.5,0,17.3,0V190.4z"/>
</g>
</svg>
