<?xml version="1.0" encoding="utf-8"?>
<!-- Generator: Adobe Illustrator 21.0.2, SVG Export Plug-In . SVG Version: 6.00 Build 0)  -->
<svg version="1.1" id="Calque_1" xmlns="http://www.w3.org/2000/svg" xmlns:xlink="http://www.w3.org/1999/xlink" x="0px" y="0px"
	 viewBox="0 0 320 200" style="enable-background:new 0 0 320 200;" xml:space="preserve">
<style type="text/css">
	.st0{fill:#73B5E4;}
	.st1{fill:#EFEFEF;}
	.st2{fill:#E7E6E6;}
	.st3{fill:#CDCCCC;}
	.st4{fill:#CDC9C4;}
	.st5{fill:#87D1F2;}
	.st6{fill:#A3D9F7;}
</style>
<rect class="st0" width="320" height="200"/>
<g>
	
		<image style="overflow:visible;opacity:0.75;" width="420" height="593" xlink:href="FF05579A.png"  transform="matrix(0.24 0 0 0.24 114.6 33.96)">
	</image>
	<g>
		<g>
			<g>
				<path class="st1" d="M191.3,59.2l-10-10c-3.3-3.3-7.7-5.1-12.3-5.1c-2.6,0-44.5-0.1-41.7,0.1c-1.5,0.4-2.6,1.8-2.6,3.4
					c0,9.8,0,59.5,0,69.4c0,2,1.6,3.5,3.5,3.5c18.5,0,32.6,0,63.6,0c2,0,3.5-1.6,3.5-3.5c0-17.8,0-30.2,0-48
					C195.3,65.4,193.9,61.8,191.3,59.2z"/>
				<path class="st2" d="M137.1,117c0-9.8,0-59.6,0-69.4c0-1.6,1-3.1,2.5-3.5l0,0c-7.6,0-13.4,0.1-12.3,0.1
					c-1.5,0.4-2.6,1.8-2.6,3.4c0,9.8,0,59.5,0,69.4c0,2,1.6,3.5,3.5,3.5c4.3,0,8.4,0,12.5,0C138.7,120.5,137.1,119,137.1,117z"/>
				<path class="st3" d="M195.2,67.3c-0.4-3-1.8-5.9-3.9-8.1l-10-10c-2.7-2.7-6.2-4.4-10-4.9c2.6,3.5,1.9,5.8,2,17.5
					c0,2.3,1.5,4.1,3.6,4.7h0c0.8,0.2-0.3,0.2,15.2,0.2C192.9,66.7,194.1,66.9,195.2,67.3z"/>
				<path class="st4" d="M189,66.4L189,66.4c-2.1-0.6-3.6-2.4-3.6-4.7c0-3.6,0-6.3,0-8.4l-4.1-4.1c-2.7-2.7-6.2-4.4-10-4.9
					c2.6,3.5,1.9,5.8,2,17.5c0,2.3,1.5,4.1,3.6,4.7h0c0.8,0.2-0.3,0.2,14.6,0.2C189.3,66.6,189.4,66.6,189,66.4z"/>
			</g>
			<g>
				<path class="st5" d="M179.2,133.5c-2.2-2.2-5.6-2.2-7.8,0l-5.3,5.3v-29.5c0-3-2.5-5.5-5.5-5.5c-3,0-5.5,2.5-5.5,5.5v29.5
					l-5.3-5.3c-2.2-2.2-5.6-2.2-7.8,0c-2.2,2.2-2.2,5.6,0,7.8l11.7,11.7c1.8,1.8,4.3,2.8,6.9,2.8c2.6,0,5.1-1,6.9-2.8l11.7-11.7
					C181.4,139.2,181.4,135.7,179.2,133.5z"/>
				<path class="st6" d="M172,133.1l-4.5,4.5c-0.2,0.2-0.5,0.5-0.8,0.7l-0.6,0.6v-0.2c-1.6,1.1-3.5,1.7-5.5,1.7
					c-2,0-3.9-0.6-5.5-1.7v0.2l-0.6-0.6c-0.3-0.2-0.5-0.4-0.8-0.7l-4.5-4.5c-2.2-1.7-5.3-1.5-7.2,0.5c-2.2,2.2-2.2,5.6,0,7.8
					l11.7,11.7c1.8,1.8,4.3,2.8,6.9,2.8c2.6,0,5.1-1,6.9-2.8l11.7-11.7c2.2-2.2,2.2-5.6,0-7.8C177.2,131.6,174.1,131.4,172,133.1z"
					/>
			</g>
		</g>
	</g>
</g>
</svg>
