<?xml version="1.0" encoding="utf-8"?>
<!-- Generator: Adobe Illustrator 21.0.2, SVG Export Plug-In . SVG Version: 6.00 Build 0)  -->
<svg version="1.1" xmlns="http://www.w3.org/2000/svg" xmlns:xlink="http://www.w3.org/1999/xlink" x="0px" y="0px"
	 viewBox="0 0 320 200" style="enable-background:new 0 0 320 200;" xml:space="preserve">
<style type="text/css">
	.st0{fill:#9697CA;}
	.st1{fill:#276EB6;}
	.st2{fill:#FFFFFF;}
	.st3{fill:#1E252B;}
	.st4{fill:#6194CF;}
</style>
<g id="Calque_1">
	<rect class="st0" width="320" height="200"/>
</g>
<g id="Calque_4">
	<g>
		
			<image style="overflow:visible;opacity:0.75;" width="761" height="593" xlink:href="8128CEC5.png"  transform="matrix(0.24 0 0 0.24 73.8 33.96)">
		</image>
		<g>
			<g>
				<path class="st1" d="M236,145.5c0,5.8-4.7,10.5-10.5,10.5h-131c-5.8,0-10.5-4.7-10.5-10.5v-91C84,48.7,88.7,44,94.5,44h131
					c5.8,0,10.5,4.7,10.5,10.5V145.5z"/>
				<g>
					<circle class="st2" cx="160" cy="110.4" r="31.8"/>
					<path class="st3" d="M155.5,125.4c-2.9,1.9-5.3,0.6-5.3-2.9V98.2c0-3.5,2.4-4.7,5.3-2.9l17.9,11.6c2.9,1.9,2.9,4.9,0,6.8
						L155.5,125.4z"/>
				</g>
				<path class="st3" d="M84,56.5v-2C84,48.7,88.7,44,94.5,44h131c5.8,0,10.5,4.7,10.5,10.5v2C236,56.5,84,56.5,84,56.5z"/>
				<g>
					<rect x="84" y="56.5" class="st4" width="151.9" height="9.9"/>
					<path class="st2" d="M150.6,56.5l-9.9,9.9h9.4l9.9-9.9C160,56.5,150.6,56.5,150.6,56.5z M131.4,56.5l-9.9,9.9h9.4l9.9-9.9
						C140.8,56.5,131.4,56.5,131.4,56.5z M112.2,56.5l-9.9,9.9h9.4l9.9-9.9C121.5,56.5,112.2,56.5,112.2,56.5z M92.9,56.5L84,65.4v1
						h8.4l9.9-9.9C102.3,56.5,92.9,56.5,92.9,56.5z M208.3,56.5l-9.9,9.9h9.4l9.9-9.9C217.7,56.5,208.3,56.5,208.3,56.5z
						 M227.6,56.5l-9.9,9.9h9.4l8.9-8.9v-1C236,56.5,227.6,56.5,227.6,56.5z M169.9,56.5l-9.9,9.9h9.4l9.9-9.9
						C179.2,56.5,169.9,56.5,169.9,56.5z M189.1,56.5l-9.9,9.9h9.4l9.9-9.9C198.5,56.5,189.1,56.5,189.1,56.5z"/>
				</g>
			</g>
		</g>
	</g>
</g>
</svg>
